<svg width="10" height="7" viewBox="0 0 10 7" fill="none" xmlns="http://www.w3.org/2000/svg">
<g clip-path="url(#clip0_601_2693)">
<path d="M8.74056 0.316816C8.88383 0.169131 9.07154 0.0878406 9.2661 0.0974613C9.46072 0.0988221 9.6398 0.182678 9.78092 0.340612C9.91462 0.490233 9.99551 0.697307 9.99401 0.912067C9.99251 1.12683 9.9237 1.33285 9.78786 1.48885L5.51843 6.13436C5.45054 6.20823 5.36779 6.26547 5.27768 6.30614C5.18757 6.34682 5.09008 6.37091 4.99277 6.37023C4.89546 6.36955 4.79833 6.34409 4.7013 6.30211C4.61177 6.26019 4.52983 6.20179 4.46298 6.12698L0.258928 1.42222C0.192079 1.34741 0.132831 1.25613 0.0960975 1.15675C0.0594212 1.04911 0.0377158 0.941572 0.0384667 0.834192C0.0392175 0.726813 0.054997 0.611277 0.0931172 0.51242C0.131237 0.413562 0.191756 0.323122 0.259702 0.240993C0.327591 0.167124 0.41782 0.109933 0.507934 0.0692614C0.598106 0.0203294 0.695531 0.00449027 0.800327 0.00522306C0.897638 0.0059035 0.994775 0.0313638 1.08431 0.0732917C1.17385 0.115219 1.25572 0.181875 1.33 0.264998L5.00669 4.37958L5.70827 3.60802L8.74056 0.316816Z" fill="#2A2D36"/>
</g>
<defs>
<clipPath id="clip0_601_2693">
<rect width="5.93709" height="9.32972" fill="white" transform="translate(0 6.33532) scale(1.06711) rotate(-89.5994)"/>
</clipPath>
</defs>
</svg>
