<svg width="13" height="12" viewBox="0 0 13 12" fill="none" xmlns="http://www.w3.org/2000/svg">
<path fill-rule="evenodd" clip-rule="evenodd" d="M6.2981 0.639424C7.29866 0.00684159 8.62782 -0.167918 9.77607 0.200062C12.2738 1.00556 13.0491 3.72849 12.3556 5.89515C11.2855 9.29804 6.71531 11.8364 6.52147 11.9428C6.45256 11.981 6.37625 12.0001 6.29995 12.0001C6.22364 12.0001 6.14796 11.9816 6.07904 11.9441C5.88643 11.8388 1.34944 9.33804 0.243653 5.89576C0.243037 5.89576 0.243037 5.89515 0.243037 5.89515C-0.45108 3.72788 0.321803 1.00433 2.81706 0.200062C3.98869 -0.178995 5.26554 -0.0122343 6.2981 0.639424ZM3.10012 1.07879C1.08115 1.72983 0.574097 3.90141 1.12238 5.61393C1.9851 8.2981 5.39353 10.4684 6.29933 11.0056C7.20821 10.4629 10.6413 8.26856 11.4763 5.61639C12.0246 3.90202 11.5157 1.73044 9.49362 1.07879C8.51399 0.76434 7.37128 0.955715 6.58239 1.56614C6.41748 1.69291 6.18857 1.69537 6.02242 1.56984C5.18678 0.941561 4.09514 0.757571 3.10012 1.07879ZM8.90289 2.30081C9.74161 2.57218 10.3293 3.31491 10.4013 4.19302C10.4216 4.44716 10.2327 4.66992 9.97852 4.69023C9.9656 4.69146 9.95329 4.69207 9.94037 4.69207C9.70223 4.69207 9.50039 4.50931 9.4807 4.26809C9.44009 3.76227 9.10165 3.33522 8.61983 3.17954C8.37676 3.10077 8.24384 2.84048 8.322 2.59864C8.40138 2.35619 8.65921 2.22451 8.90289 2.30081Z" fill="#031D1B"/>
</svg>
